<?xml version="1.0" encoding="utf-8"?>
<!-- Generator: Adobe Illustrator 18.0.0, SVG Export Plug-In . SVG Version: 6.00 Build 0)  -->
<!DOCTYPE svg PUBLIC "-//W3C//DTD SVG 1.1//EN" "http://www.w3.org/Graphics/SVG/1.1/DTD/svg11.dtd">
<svg version="1.1" xmlns="http://www.w3.org/2000/svg" xmlns:xlink="http://www.w3.org/1999/xlink" x="0px" y="0px" width="100px"
	 height="200px" viewBox="0 0 100 200" enable-background="new 0 0 100 200" xml:space="preserve">
<g id="Layer_2" display="none">
	<rect x="-200" y="-119" display="inline" stroke="#FFFFFF" stroke-miterlimit="10" width="526" height="524"/>
</g>
<g id="bigplay">
	<path fill="none" d="z"/>
	<g id="dark">
		<path id="Polygon" opacity="0.75" enable-background="new    " d="M72.5,49.5L38.8,69V30L72.5,49.5z"/>
		
			<path id="Ellipse" opacity="0.75" fill="none" stroke="#000000" stroke-width="5" stroke-miterlimit="10" enable-background="new    " d="
			M13,50.5C13,29.8,29.8,13,50.5,13S88,29.8,88,50.5S71.2,88,50.5,88S13,71.2,13,50.5z"/>
	</g>
	<g id="light">
		<path id="Polygon2" fill="#FDB913" d="M72.5,149.5L38.8,169v-39L72.5,149.5z"/>
		<path id="Ellipse2" fill="none" stroke="#FDB913" stroke-width="5" d="M13,150.5c0-20.7,16.8-37.5,37.5-37.5S88,129.8,88,150.5
			c0,20.7-16.8,37.5-37.5,37.5S13,171.2,13,150.5z"/>
	</g>
	<path fill="none" d="z"/>
</g>
</svg>
