<?xml version="1.0" encoding="utf-8"?>
<!-- Generator: Adobe Illustrator 18.0.0, SVG Export Plug-In . SVG Version: 6.00 Build 0)  -->
<!DOCTYPE svg PUBLIC "-//W3C//DTD SVG 1.1//EN" "http://www.w3.org/Graphics/SVG/1.1/DTD/svg11.dtd">
<svg version="1.1" xmlns="http://www.w3.org/2000/svg" xmlns:xlink="http://www.w3.org/1999/xlink" x="0px" y="0px" width="100px"
	 height="200px" viewBox="0 0 100 200" enable-background="new 0 0 100 200" xml:space="preserve">
<g id="Layer_2" display="none">
	<rect x="-200" y="-119" display="inline" stroke="#FFFFFF" stroke-miterlimit="10" width="526" height="524"/>
</g>
<g id="bigplay">
	<path fill="none" d="z"/>
	<g id="dark">
		<g id="Polygon" opacity="0.75" enable-background="new    ">
			<polygon points="141,44.3 107.3,63.8 107.3,24.8 			"/>
			<g>
				<g>
					<g>
						<g opacity="0.85">
							<g>
								<path fill="#231F20" d="M133.3,38.4c-0.3-0.2-0.7-0.4-1-0.6c0.1,0.2,0.3,0.3,0.3,0.6C132.9,38.6,133.1,38.4,133.3,38.4z"/>
								<path fill="#231F20" d="M131.4,37.2c-0.1,0-0.1-0.1-0.2-0.1c-0.1,0-0.1,0-0.2,0C131.2,37.1,131.3,37.1,131.4,37.2z"/>
								<path fill="#231F20" d="M129.6,36.4c0.3,0.2,0.6,0.4,0.9,0.5C130.3,36.6,130,36.5,129.6,36.4z"/>
								<path fill="#231F20" d="M130.8,37.4c0-0.2,0-0.3,0.2-0.3l0,0c-0.2-0.1-0.4-0.1-0.6-0.2C130.6,37,130.8,37.2,130.8,37.4z"/>
								<path fill="#231F20" d="M130.8,37.4c0,0.2,0.1,0.4,0.2,0.5C131,37.7,130.9,37.5,130.8,37.4z"/>
								<path fill="#231F20" d="M128.7,40.1c-0.2,0,0.3-0.8-0.2-0.8c-1-0.2-1.9-0.3-2.7-0.7c-0.5,0-0.5-1.3-0.9-1.3
									c-1-0.2-3.7-0.3-2.4,0.3c1.9,1,3.3,1.4,5.1,2.3c1.6,0.5,3.1,0.8,4.7,1.3c0.4,0.2,0.7,0.5,1.1,0.7c-0.4-0.4-0.8-0.8-1.3-1.3
									C131.4,39.9,129.9,40.5,128.7,40.1z"/>
								<path fill="#231F20" d="M140.5,43.2c-0.2,0-0.7,0-0.7,0c-0.4-1.1-1.4-1.3-2.4-1.5c0,0.2,0.1,0.4,0.1,0.6
									c0.5,0.2,0.7,0,0.4-0.4c0.7,1.1,1.5,1.7,2.5,2.1C140.5,43.7,140.7,43.4,140.5,43.2z"/>
								<path fill="#231F20" d="M141,44.2c-0.2-0.1-0.4-0.2-0.6-0.2l0,0.1C140.6,44.1,140.9,44.2,141,44.2L141,44.2z"/>
								<path fill="#231F20" d="M125.4,35c-2.4-1.3-4.5-2.6-6.7-4c-0.3,0.1-0.5,0.2-0.7,0c-0.1-0.2-0.2-0.4-0.3-0.6l-0.9-0.6
									c-0.1,0-0.3-0.1-0.4-0.1l0,0c-0.2,0-0.2,0.2-0.2,0.3c0.1,0.2,0.1,0.3,0.2,0.5c0-0.1-0.1-0.3-0.2-0.5
									c-0.1-0.2-0.2-0.4-0.4-0.5c-0.3-0.1-0.6-0.3-0.9-0.5c0.4,0.1,0.7,0.3,0.9,0.5c0.2,0.1,0.4,0.1,0.6,0.2c0.1,0,0.1,0,0.2,0
									c-0.8-0.5-1.5-1-2.3-1.5c-0.2-0.1-0.4-0.2-0.5-0.2c-0.6-0.2-1.1-0.3-1.5-1.1c-0.1-0.1-0.3-0.2-0.4-0.3
									c0,0.1,0.1,0.1,0.1,0.2c-0.1-0.1-0.1-0.1-0.2-0.2c-0.6-0.4-1.3-0.8-1.9-1.2c-0.3,0-0.6,0.1-0.9,0.1c0,0-0.5-0.7-0.7-1
									c0,0.3-0.1,0.4-0.3,0.4c0.5,0.6,1,1.2,1.4,1.7c0.3,0.5,0.3,0.2,0.4,0c0.1-0.2,0.3-0.2,0.7,0.5c-0.4-0.8-0.6-0.7-0.7-0.5
									c-0.1,0.2-0.1,0.4-0.4,0c-0.4-0.5-0.9-1.1-1.4-1.7c-0.3,0-0.7-0.3-1.2-0.8c-0.1,0.1-0.2,0.2-0.4,0.2
									c-0.1-0.5-0.2-0.9-0.2-1.1c0.5,0.3,1.2,1,1.8,1.7c0.2,0,0.3-0.1,0.3-0.4c0.2,0.3,0.7,1,0.7,1c0.3,0,0.6-0.1,0.9-0.1
									l-3.8-2.5l0,0.1c-0.2,2.2-0.3,4.5-0.3,6.9c-0.1,2.4-0.1,4.7-0.2,7c-0.1,3.9-0.2,7.9-0.4,12.2c-0.2,2.7-0.3,5.3-0.5,7.9
									c-0.2,3.5-0.5,7-0.7,10.5c-0.1,0.9-0.1,1.8-0.2,2.6c2.6-1.2,5.3-2.7,8.1-4.3c1.4-0.8,2.8-1.6,4.2-2.3l2.1-1.2l1.4-0.8
									c3.4-1.8,7-3.5,11.1-4.6c3.3-0.9,8.4-4.4,11.2-6.1c2.9-3.5-1.1-6-1.4-6.1c-4-1.7-4.9,1-10.6,1.9c3.8-0.8-1.2,3.3-5.4,3
									c-3.1-0.3-5.8,1-8.5,2.8c-0.7,0.4-1.3,0.9-2,1.3c-0.2,0.2-0.2,0.1-0.2,0.2l0,0.1c0,0.1-0.1,0.1-0.1,0.2
									c-0.2,0.2-0.4,0.4-0.5,0.1c0-0.2-0.1-0.1-0.2,0c0,0,0-0.1,0-0.2c0.3-0.7,0.4-0.7,0.5-0.8c0,0,0,0,0,0l0-1.5
									c0-1.2-0.1-2.3-0.1-3.5c-0.1-2.3-0.2-4.7-0.3-7.1c0-1.2-0.1-2.4-0.1-3.6c0-0.6,0-1.2,0-1.9l0-0.2l0,0l0,0c0,0,0-0.1,0-0.1
									c0-0.1-0.2-0.3-0.5-0.8c-0.3-0.5-0.6-1.2-0.9-1.9c-0.1-0.3,0-0.4,0-0.5c0.4,0.3,0.8,0.8,1,0.9c0.5,0.3,0.8,0.1,1.5,0
									c-0.7-0.2-1.1-0.1-1.6-0.2c-0.2-0.1-0.3-0.5-0.3-0.9c0-0.4,0.2-0.7,0.4-0.8c0.1-0.1,0.3,0.3,0.4,0.6
									c0.1,0.3,0.3,0.6,0.3,0.6c0.3,0.2,0.7-0.1,1.2-0.1c0.3-0.1-0.1,0.8,0,0.8c0.1,0,0.2,0,0.2,0c0.1,0,0.2,0,0.4,0
									c0.3,0,0.6,0,0.9,0c0.6,0,1.1,0,1.4,0.3c0.5,0.4,0.9,0.9,1.3,1.3c0.3,0.2,0.6,0.4,0.9,0.6c0.2,0,0.5,0.1,0.7,0.1
									c0-0.3,0.1-0.7,0.2-1c0.3,0.2,0.6,0.6,0.9,0.9c-0.3-0.2-0.6-0.6-0.9-0.9c-0.1,0.3-0.2,0.7-0.2,1c1.8,0.4,3.7,0.9,5.5,1.5
									c0,0,0-0.1,0-0.1c-1-0.5-1.8-1-2.5-2.1c0.3,0.4,0.1,0.6-0.4,0.4l-0.1-0.6c1,0.2,1.9,0.5,2.4,1.5c0,0,0.5,0,0.7,0
									c0.2,0.3,0,0.5,0,0.8c0.2,0.1,0.4,0.2,0.6,0.3C126.3,36.2,125.4,35,125.4,35z"/>
								<path fill="#231F20" d="M115.8,29.4c0.1,0,0.3,0.1,0.5,0.2c-0.6-0.4-1.3-0.8-1.9-1.2C114.7,29.1,115.2,29.2,115.8,29.4z"/>
							</g>
						</g>
					</g>
				</g>
			</g>
		</g>
		<g id="Ellipse" opacity="0.75" enable-background="new    ">
			<g>
				<g>
					<g>
						<g opacity="0.85">
							<g>
								<path fill="#202020" d="M16.8,69.7c0.4,0.7,0.8,1.4,1.2,2.1c-0.2-0.4-0.3-0.8-0.3-1.2C17.5,70,17.1,69.9,16.8,69.7z"/>
								<path fill="#202020" d="M19.3,73.7c0.1,0.1,0.2,0.2,0.3,0.4c0.1,0.1,0.2,0.2,0.3,0.2L19.3,73.7z"/>
								<path fill="#202020" d="M22.2,76.8c-0.5-0.6-1-1.1-1.5-1.6C21,75.7,21.5,76.2,22.2,76.8z"/>
								<path fill="#202020" d="M20.2,74.1c0,0.3,0,0.5-0.3,0.2l0,0c0.3,0.3,0.6,0.6,0.9,0.9C20.4,74.8,20.3,74.4,20.2,74.1z"/>
								<path fill="#202020" d="M20.2,74.1c0-0.3-0.2-0.7-0.2-0.8C20,73.5,20.1,73.8,20.2,74.1z"/>
								<path fill="#202020" d="M23.4,72.7c0.3,0.2-0.5,0.8,0.2,1.2c0.7,0.6,1.4,1.1,2.1,1.6c0.7,0.5,1.4,0.9,2,1.5
									c0.7,0.4,1,1.9,1.8,2.2c0.4,0.2,1,0.5,1.6,0.7c0.6,0.2,1.3,0.4,1.8,0.5c1.1,0.2,1.6,0.2,0.4-0.5c-3.5-1.9-5.6-3.4-8.3-5.9
									c-0.6-0.5-1.1-0.9-1.7-1.4l-1.6-1.6c-0.3-0.3-0.5-0.5-0.8-0.8l-0.7-0.9c-0.5-0.6-1-1.2-1.4-1.8c-0.4-0.8-0.7-1.5-1-2.3
									c0.2,0.5,0.3,1,0.5,1.6c0.1,0.3,0.2,0.5,0.3,0.8c0.1,0.3,0.2,0.5,0.4,0.8c0.3,0.8,1,1.4,1.7,2.1
									C21.7,71.2,22.6,71.8,23.4,72.7z"/>
								<path fill="#202020" d="M12.4,52.6c0.1,0.4,0.4,1.2,0.4,1.2c-0.3,1-0.2,1.9-0.1,2.9c0.1,0.5,0.2,1,0.3,1.4
									c0.1,0.5,0.4,0.9,0.5,1.4c0.1-0.3,0.2-0.6,0.3-0.9c-0.2-0.5-0.3-0.8-0.4-0.8c-0.1,0-0.2,0.2-0.2,0.7c0.1-1.2,0.1-2.3,0-3.4
									c-0.1-0.5-0.1-1.1-0.1-1.6c0-0.5-0.1-1.1-0.1-1.6C12.8,52,12.5,51.9,12.4,52.6z"/>
								<path fill="#202020" d="M12.9,50.5c0,0.4,0.1,0.9,0.1,1.3c0,0,0.1,0,0.1,0C13,51.3,13,50.9,12.9,50.5L12.9,50.5z"/>
								<path fill="#202020" d="M29.4,81.9c4.6,3,9.5,4.9,14.5,5.9c0.4-0.1,0.7-0.3,1.2-0.1c0.4,0.2,0.7,0.4,1.1,0.5
									c0.7,0.1,1.5,0.1,2.2,0.2c0.3,0,0.5,0,0.8,0c0,0,0,0,0,0c0.4-0.1,0.3-0.2,0-0.4c-0.3-0.1-0.5-0.2-0.7-0.4
									c0.1,0.1,0.5,0.2,0.7,0.4c0.3,0.1,0.7,0.3,1.2,0.3c0.7-0.1,1.4-0.2,2.1-0.1c-0.8,0.2-1.5,0.2-2.1,0.1c-0.4,0-0.8,0-1.2,0.1
									c-0.1,0-0.2,0-0.4,0.1c1.7,0.2,3.4,0.1,5.1,0c0.4,0,0.8-0.1,1-0.2c1.2-0.3,2.4-0.6,3.2-0.3c0.3-0.1,0.6-0.1,0.9-0.2l-0.2,0
									c0.1,0,0.3,0,0.4,0c1.2-0.3,2.5-0.5,3.7-0.9c0.7-0.5,1.5-1,2.2-1.4c0,0,0.2,0,0.4,0c0.2,0,0.4,0,0.6,0
									c0.2-0.4,0.6-0.7,1.1-1.1c-0.7,0-1.4,0-2,0.1c-0.9-0.1-1.4,1.6-2.7,1.1c1.2,0.5,1.7-1.2,2.7-1.1c0.6-0.1,1.3,0,2-0.1
									c1-0.6,2.4-1.3,3.8-1.6c-0.6,0.6-1.2,1-1.8,1.2c-0.6,0.3-1.3,0.3-1.9,0.3c-0.5,0.3-0.9,0.7-1.1,1.1c-0.2,0-0.4,0-0.6,0
									c-0.2,0-0.4,0-0.4,0c-0.7,0.4-1.5,0.9-2.2,1.4c1.2-0.4,2.4-0.7,3.6-1.3c1.2-0.5,2.4-1,3.5-1.7l1.4-0.8l0.7-0.4l0.6-0.4
									c0.9-0.6,1.7-1.2,2.6-1.8c0.8-0.7,1.6-1.4,2.4-2c0.8-0.7,1.4-1.5,2.2-2.2c2.8-3.1,5-6.6,6.8-10.4c3.2-7.7,4.3-16.4,2.2-25.2
									c-2.2-9.5-7.7-17.9-15.1-23.7c-3.7-2.9-8-5-12.4-6.3c-2.2-0.7-4.5-1-6.8-1.3L51.1,9c-1.1-0.1-2.3,0.1-3.4,0.1
									C43,9.4,38.5,10.3,34,11.9c-4.4,1.6-8.7,4-12.8,6.9c-0.4,0.3-0.8,0.6-1.2,0.9c-0.4,0.3-0.8,0.7-1.2,1.1
									c-0.4,0.4-0.8,0.8-1.3,1.3c-0.2,0.2-0.4,0.4-0.6,0.7c-0.2,0.2-0.4,0.5-0.6,0.7c-0.4,0.5-0.8,1-1.2,1.5
									c-0.4,0.5-0.8,1.1-1.2,1.6c-0.7,1.2-1.5,2.3-2.1,3.6c-0.6,1.3-1.2,2.5-1.7,3.8c-0.4,1.3-0.9,2.5-1.3,3.7
									C8.5,39,8.3,40.2,8,41.3c-0.2,1.1-0.3,2.2-0.5,3.1c0,0.6,0,1.2,0.1,1.7c0.1,0.5,0.2,1,0.3,1.4c0.2,0.8,0.5,1.4,0.8,1.9
									c0.6,0.9,1.2,1.1,1.9,1.1c1.3-0.1,2.4-1.3,2.5-1.5c0.5-0.6,0.9-1.3,1.2-1.9c0.3-0.6,0.7-1.2,0.9-1.8
									c0.3-0.6,0.5-1.2,0.7-1.8c0.2-0.6,0.5-1.3,0.7-1.9c0.4-1.4,1.1-2.8,1.8-4.5c0.5-0.8,1-1.7,1.6-2.6c0.6-0.9,1.4-1.7,2.3-2.7
									c-2.2,2.6-2.1,1.2-0.6-1.3c0.4-0.6,0.9-1.3,1.5-2c0.6-0.7,1.3-1.3,2-2c0.7-0.7,1.6-1.2,2.4-1.7c0.4-0.2,0.8-0.5,1.2-0.7
									c0.4-0.2,0.8-0.3,1.2-0.4c0.6-0.2,1.2-0.3,1.7-0.5c0.6-0.2,1.2-0.3,1.8-0.6c0.6-0.2,1.2-0.4,1.7-0.6
									c0.6-0.2,1.2-0.4,1.8-0.6c1.2-0.5,2.5-0.8,3.7-1.2c0.6-0.2,1.3-0.3,1.9-0.5c0.7-0.2,1.3-0.4,2-0.5c1.3-0.2,2.7-0.6,4.1-0.6
									c0.7,0,1.4-0.2,2.1-0.2l2.1,0c0.4,0,0.7,0,1.1,0l1,0.1c0.7,0.1,1.4,0.2,2.1,0.3c0.7,0.2,1.3,0.4,2,0.6l1,0.3
									c0.3,0.1,0.6,0.3,0.9,0.4c0.6,0.3,1.2,0.5,1.9,0.8c0.6,0.3,1.2,0.6,1.9,0.9c0.3,0.2,0.7,0.3,1,0.5c0.3,0.2,0.6,0.4,1,0.6
									c0.6,0.4,1.3,0.8,2,1.2c6.4,5.2,11,11.9,12.8,19.7c1.8,7.7,0.9,16.5-3.9,23.7c-2.4,3.8-4.7,7.4-7.8,10.1
									c-0.5,0.5-1.2,0.8-1.9,1.2c-0.7,0.3-1.3,0.8-2,1c-1.4,0.5-2.6,1.1-3.7,1.4c-1.7,0.7-3.4,1.1-5,1.7c-1.6,0.4-3.2,0.9-4.7,1.1
									c1.8-0.1,3.2-0.6,4.7-0.9c0.7-0.2,1.5-0.5,2.3-0.7c0.4-0.1,0.8-0.2,1.2-0.4c0.4-0.2,0.8-0.3,1.3-0.5c1.2-0.5,0.9,0,0.1,0.6
									c-0.4,0.3-0.9,0.8-1.5,1.1c-0.6,0.3-1.1,0.6-1.5,0.8c-0.3,0.2-0.9,0.1-1.4,0c-0.5-0.1-1-0.3-1.4-0.1
									c-0.8,0.1-1.6,0.4-2.3,0.6c-0.8,0.2-1.6,0.4-2.5,0.6c-0.8,0.2-0.7-0.7-1.1-0.6c-1.2,0-2.3,0.4-3.3,0.6c-1,0.2-1.9,0.3-2.6,0
									c-1.2-0.3-2.2-0.8-3.1-1.1c-0.6-0.2-1.2-0.4-1.9-0.6c-0.4-0.1-0.9-0.2-1.3-0.2c0.2,0.4,0.2,0.8,0.2,1.2
									c-0.6-0.3-1.4-0.8-2-1.1c0.6,0.3,1.4,0.8,2,1.1c0-0.4,0-0.8-0.2-1.2c-3.2-0.6-6.9-1.9-9.9-3.9c0,0,0,0.1,0,0.1
									c1.7,1.2,3.4,2.4,5.1,4c-0.4-0.3-0.5-0.5-0.4-0.6c0.1-0.1,0.4,0,0.9,0.2c0.2,0.3,0.4,0.5,0.5,0.8c-0.5-0.2-0.9-0.3-1.4-0.5
									c-0.4-0.2-0.9-0.4-1.3-0.6c-0.8-0.5-1.6-1-2.1-1.8c0,0-0.8-0.3-1.2-0.5c-0.4-0.5-0.2-0.7-0.1-1c-0.3-0.2-0.7-0.5-1-0.7
									c0.2,0.5,0.8,1.2,1.3,1.9c0.3,0.3,0.5,0.6,0.7,0.9C29.3,81.7,29.4,81.9,29.4,81.9z"/>
								<path fill="#202020" d="M50.5,88.3c-0.3,0-0.7,0-1,0l1.1,0.1l1.1,0l2.1,0C52.9,87.9,51.7,88.1,50.5,88.3z"/>
							</g>
						</g>
					</g>
				</g>
			</g>
		</g>
	</g>
	<g id="light">
		<g id="Polygon2">
			<polygon fill="#FDB913" points="-26,161.8 -59.8,181.2 -59.8,142.3 			"/>
			<g>
				<g>
					<g>
						<g opacity="0.85">
							<g>
								<path fill="#FCC134" d="M-33.7,155.8c-0.3-0.2-0.7-0.4-1-0.6c0.1,0.2,0.3,0.3,0.3,0.6C-34.1,156-33.9,155.9-33.7,155.8z"/>
								<path fill="#FCC134" d="M-35.6,154.6c-0.1,0-0.1-0.1-0.2-0.1c-0.1,0-0.1,0-0.2,0C-35.8,154.5-35.7,154.5-35.6,154.6z"/>
								<path fill="#FCC134" d="M-37.4,153.8c0.3,0.2,0.6,0.4,0.9,0.5C-36.7,154-37,153.9-37.4,153.8z"/>
								<path fill="#FCC134" d="M-36.2,154.8c0-0.2,0-0.3,0.2-0.3l0,0c-0.2-0.1-0.4-0.1-0.6-0.2C-36.4,154.4-36.2,154.6-36.2,154.8z
									"/>
								<path fill="#FCC134" d="M-36.2,154.8c0,0.2,0.1,0.4,0.2,0.5C-36,155.1-36.1,154.9-36.2,154.8z"/>
								<path fill="#FCC134" d="M-38.3,157.5c-0.2,0,0.3-0.8-0.2-0.8c-1-0.2-1.9-0.3-2.7-0.7c-0.5,0-0.5-1.3-0.9-1.3
									c-1-0.2-3.7-0.3-2.4,0.3c1.9,1,3.3,1.4,5.1,2.3c1.6,0.5,3.1,0.8,4.7,1.3c0.4,0.2,0.7,0.5,1.1,0.7c-0.4-0.4-0.8-0.8-1.3-1.3
									C-35.6,157.4-37.1,157.9-38.3,157.5z"/>
								<path fill="#FCC134" d="M-26.5,160.6c-0.2,0-0.7,0-0.7,0c-0.4-1.1-1.4-1.3-2.4-1.5c0,0.2,0.1,0.4,0.1,0.6
									c0.5,0.2,0.7,0,0.4-0.4c0.7,1.1,1.5,1.7,2.5,2.1C-26.5,161.1-26.3,160.9-26.5,160.6z"/>
								<path fill="#FCC134" d="M-26,161.6c-0.2-0.1-0.4-0.2-0.6-0.2l0,0.1C-26.4,161.5-26.1,161.6-26,161.6L-26,161.6z"/>
								<path fill="#FCC134" d="M-41.6,152.4c-2.4-1.3-4.5-2.6-6.7-4c-0.3,0.1-0.5,0.2-0.7,0c-0.1-0.2-0.2-0.4-0.3-0.6l-0.9-0.6
									c-0.1,0-0.3-0.1-0.4-0.1l0,0c-0.2,0-0.2,0.2-0.2,0.3c0.1,0.2,0.1,0.3,0.2,0.5c0-0.1-0.1-0.3-0.2-0.5
									c-0.1-0.2-0.2-0.4-0.4-0.5c-0.3-0.1-0.6-0.3-0.9-0.5c0.4,0.1,0.7,0.3,0.9,0.5c0.2,0.1,0.4,0.1,0.6,0.2c0.1,0,0.1,0,0.2,0
									c-0.8-0.5-1.5-1-2.3-1.5c-0.2-0.1-0.4-0.2-0.5-0.2c-0.6-0.2-1.1-0.3-1.5-1.1c-0.1-0.1-0.3-0.2-0.4-0.3
									c0,0.1,0.1,0.1,0.1,0.2c-0.1-0.1-0.1-0.1-0.2-0.2c-0.6-0.4-1.3-0.8-1.9-1.2c-0.3,0-0.6,0.1-0.9,0.1c0,0-0.5-0.7-0.7-1
									c0,0.3-0.1,0.4-0.3,0.4c0.5,0.6,1,1.2,1.4,1.7c0.3,0.5,0.3,0.2,0.4,0c0.1-0.2,0.3-0.2,0.7,0.5c-0.4-0.8-0.6-0.7-0.7-0.5
									c-0.1,0.2-0.1,0.4-0.4,0c-0.4-0.5-0.9-1.1-1.4-1.7c-0.3,0-0.7-0.3-1.2-0.8c-0.1,0.1-0.2,0.2-0.4,0.2
									c-0.1-0.5-0.2-0.9-0.2-1.1c0.5,0.3,1.2,1,1.8,1.7c0.2,0,0.3-0.1,0.3-0.4c0.2,0.3,0.7,1,0.7,1c0.3,0,0.6-0.1,0.9-0.1
									l-3.8-2.5l0,0.1c-0.2,2.2-0.3,4.5-0.3,6.9c-0.1,2.4-0.1,4.7-0.2,7c-0.1,3.9-0.2,7.9-0.4,12.2c-0.2,2.7-0.3,5.3-0.5,7.9
									c-0.2,3.5-0.5,7-0.7,10.5c-0.1,0.9-0.1,1.8-0.2,2.6c2.6-1.2,5.3-2.7,8.1-4.3c1.4-0.8,2.8-1.6,4.2-2.3l2.1-1.2l1.4-0.8
									c3.4-1.8,7-3.5,11.1-4.6c3.3-0.9,8.4-4.4,11.2-6.1c2.9-3.5-1.1-6-1.4-6.1c-4-1.7-4.9,1-10.6,1.9c3.8-0.8-1.2,3.3-5.4,3
									c-3.1-0.3-5.8,1-8.5,2.8c-0.7,0.4-1.3,0.9-2,1.3c-0.2,0.2-0.2,0.1-0.2,0.2l0,0.1c0,0.1-0.1,0.1-0.1,0.2
									c-0.2,0.2-0.4,0.4-0.5,0.1c0-0.2-0.1-0.1-0.2,0c0,0,0-0.1,0-0.2c0.3-0.7,0.4-0.7,0.5-0.8c0,0,0,0,0,0l0-1.5
									c0-1.2-0.1-2.3-0.1-3.5c-0.1-2.3-0.2-4.7-0.3-7.1c0-1.2-0.1-2.4-0.1-3.6c0-0.6,0-1.2,0-1.9l0-0.2l0,0l0,0c0,0,0-0.1,0-0.1
									c0-0.1-0.2-0.3-0.5-0.8c-0.3-0.5-0.6-1.2-0.9-1.9c-0.1-0.3,0-0.4,0-0.5c0.4,0.3,0.8,0.8,1,0.9c0.5,0.3,0.8,0.1,1.5,0
									c-0.7-0.2-1.1-0.1-1.6-0.2c-0.2-0.1-0.3-0.5-0.3-0.9c0-0.4,0.2-0.7,0.4-0.8c0.1-0.1,0.3,0.3,0.4,0.6
									c0.1,0.3,0.3,0.6,0.3,0.6c0.3,0.2,0.7-0.1,1.2-0.1c0.3-0.1-0.1,0.8,0,0.8c0.1,0,0.2,0,0.2,0c0.1,0,0.2,0,0.4,0
									c0.3,0,0.6,0,0.9,0c0.6,0,1.1,0,1.4,0.3c0.5,0.4,0.9,0.9,1.3,1.3c0.3,0.2,0.6,0.4,0.9,0.6c0.2,0,0.5,0.1,0.7,0.1
									c0-0.3,0.1-0.7,0.2-1c0.3,0.2,0.6,0.6,0.9,0.9c-0.3-0.2-0.6-0.6-0.9-0.9c-0.1,0.3-0.2,0.7-0.2,1c1.8,0.4,3.7,0.9,5.5,1.5
									c0,0,0-0.1,0-0.1c-1-0.5-1.8-1-2.5-2.1c0.3,0.4,0.1,0.6-0.4,0.4l-0.1-0.6c1,0.2,1.9,0.5,2.4,1.5c0,0,0.5,0,0.7,0
									c0.2,0.3,0,0.5,0,0.8c0.2,0.1,0.4,0.2,0.6,0.3C-40.7,153.6-41.6,152.4-41.6,152.4z"/>
								<path fill="#FCC134" d="M-51.2,146.8c0.1,0,0.3,0.1,0.5,0.2c-0.6-0.4-1.3-0.8-1.9-1.2C-52.3,146.5-51.8,146.6-51.2,146.8z"
									/>
							</g>
						</g>
					</g>
				</g>
			</g>
		</g>
		<g id="Ellipse2">
			<g>
				<g>
					<g>
						<g opacity="0.85">
							<g>
								<path fill="#FDC231" d="M16.8,169.7c0.4,0.7,0.8,1.4,1.2,2.1c-0.2-0.4-0.3-0.8-0.3-1.2C17.5,170,17.1,169.9,16.8,169.7z"/>
								<path fill="#FDC231" d="M19.3,173.7c0.1,0.1,0.2,0.2,0.3,0.4c0.1,0.1,0.2,0.2,0.3,0.2L19.3,173.7z"/>
								<path fill="#FDC231" d="M22.2,176.8c-0.5-0.6-1-1.1-1.5-1.6C21,175.7,21.5,176.2,22.2,176.8z"/>
								<path fill="#FDC231" d="M20.2,174.1c0,0.3,0,0.5-0.3,0.2l0,0c0.3,0.3,0.6,0.6,0.9,0.9C20.4,174.8,20.3,174.4,20.2,174.1z"/>
								<path fill="#FDC231" d="M20.2,174.1c0-0.3-0.2-0.7-0.2-0.8C20,173.5,20.1,173.8,20.2,174.1z"/>
								<path fill="#FDC231" d="M23.4,172.7c0.3,0.2-0.5,0.8,0.2,1.2c0.7,0.6,1.4,1.1,2.1,1.6c0.7,0.5,1.4,0.9,2,1.5
									c0.7,0.4,1,1.9,1.8,2.2c0.4,0.2,1,0.5,1.6,0.7c0.6,0.2,1.3,0.4,1.8,0.5c1.1,0.2,1.6,0.2,0.4-0.5c-3.5-1.9-5.6-3.4-8.3-5.9
									c-0.6-0.5-1.1-0.9-1.7-1.4l-1.6-1.6c-0.3-0.3-0.5-0.5-0.8-0.8l-0.7-0.9c-0.5-0.6-1-1.2-1.4-1.8c-0.4-0.8-0.7-1.5-1-2.3
									c0.2,0.5,0.3,1,0.5,1.6c0.1,0.3,0.2,0.5,0.3,0.8c0.1,0.3,0.2,0.5,0.4,0.8c0.3,0.8,1,1.4,1.7,2.1
									C21.7,171.2,22.6,171.8,23.4,172.7z"/>
								<path fill="#FDC231" d="M12.4,152.6c0.1,0.4,0.4,1.2,0.4,1.2c-0.3,1-0.2,1.9-0.1,2.9c0.1,0.5,0.2,1,0.3,1.4
									c0.1,0.5,0.4,0.9,0.5,1.4c0.1-0.3,0.2-0.6,0.3-0.9c-0.2-0.5-0.3-0.8-0.4-0.8c-0.1,0-0.2,0.2-0.2,0.7c0.1-1.2,0.1-2.3,0-3.4
									c-0.1-0.5-0.1-1.1-0.1-1.6c0-0.5-0.1-1.1-0.1-1.6C12.8,152,12.5,151.9,12.4,152.6z"/>
								<path fill="#FDC231" d="M12.9,150.5c0,0.4,0.1,0.9,0.1,1.3c0,0,0.1,0,0.1,0C13,151.3,13,150.9,12.9,150.5L12.9,150.5z"/>
								<path fill="#FDC231" d="M29.4,181.9c4.6,3,9.5,4.9,14.5,5.9c0.4-0.1,0.7-0.3,1.2-0.1c0.4,0.2,0.7,0.4,1.1,0.5
									c0.7,0.1,1.5,0.1,2.2,0.2c0.3,0,0.5,0,0.8,0c0,0,0,0,0,0c0.4-0.1,0.3-0.2,0-0.4c-0.3-0.1-0.5-0.2-0.7-0.4
									c0.1,0.1,0.5,0.2,0.7,0.4c0.3,0.1,0.7,0.3,1.2,0.3c0.7-0.1,1.4-0.2,2.1-0.1c-0.8,0.2-1.5,0.2-2.1,0.1c-0.4,0-0.8,0-1.2,0.1
									c-0.1,0-0.2,0-0.4,0.1c1.7,0.2,3.4,0.1,5.1,0c0.4,0,0.8-0.1,1-0.2c1.2-0.3,2.4-0.6,3.2-0.3c0.3-0.1,0.6-0.1,0.9-0.2l-0.2,0
									c0.1,0,0.3,0,0.4,0c1.2-0.3,2.5-0.5,3.7-0.9c0.7-0.5,1.5-1,2.2-1.4c0,0,0.2,0,0.4,0c0.2,0,0.4,0,0.6,0
									c0.2-0.4,0.6-0.7,1.1-1.1c-0.7,0-1.4,0-2,0.1c-0.9-0.1-1.4,1.6-2.7,1.1c1.2,0.5,1.7-1.2,2.7-1.1c0.6-0.1,1.3,0,2-0.1
									c1-0.6,2.4-1.3,3.8-1.6c-0.6,0.6-1.2,1-1.8,1.2c-0.6,0.3-1.3,0.3-1.9,0.3c-0.5,0.3-0.9,0.7-1.1,1.1c-0.2,0-0.4,0-0.6,0
									c-0.2,0-0.4,0-0.4,0c-0.7,0.4-1.5,0.9-2.2,1.4c1.2-0.4,2.4-0.7,3.6-1.3c1.2-0.5,2.4-1,3.5-1.7l1.4-0.8l0.7-0.4l0.6-0.4
									c0.9-0.6,1.7-1.2,2.6-1.8c0.8-0.7,1.6-1.4,2.4-2c0.8-0.7,1.4-1.5,2.2-2.2c2.8-3.1,5-6.6,6.8-10.4c3.2-7.7,4.3-16.4,2.2-25.2
									c-2.2-9.5-7.7-17.9-15.1-23.7c-3.7-2.9-8-5-12.4-6.3c-2.2-0.7-4.5-1-6.8-1.3l-3.4-0.2c-1.1-0.1-2.3,0.1-3.4,0.1
									c-4.6,0.3-9.1,1.2-13.6,2.8c-4.4,1.6-8.7,4-12.8,6.9c-0.4,0.3-0.8,0.6-1.2,0.9c-0.4,0.3-0.8,0.7-1.2,1.1
									c-0.4,0.4-0.8,0.8-1.3,1.3c-0.2,0.2-0.4,0.4-0.6,0.7c-0.2,0.2-0.4,0.5-0.6,0.7c-0.4,0.5-0.8,1-1.2,1.5
									c-0.4,0.5-0.8,1.1-1.2,1.6c-0.7,1.2-1.5,2.3-2.1,3.6c-0.6,1.3-1.2,2.5-1.7,3.8c-0.4,1.3-0.9,2.5-1.3,3.7
									c-0.3,1.2-0.6,2.4-0.8,3.5c-0.2,1.1-0.3,2.2-0.5,3.1c0,0.6,0,1.2,0.1,1.7c0.1,0.5,0.2,1,0.3,1.4c0.2,0.8,0.5,1.4,0.8,1.9
									c0.6,0.9,1.2,1.1,1.9,1.1c1.3-0.1,2.4-1.3,2.5-1.5c0.5-0.6,0.9-1.3,1.2-1.9c0.3-0.6,0.7-1.2,0.9-1.8
									c0.3-0.6,0.5-1.2,0.7-1.8c0.2-0.6,0.5-1.3,0.7-1.9c0.4-1.4,1.1-2.8,1.8-4.5c0.5-0.8,1-1.7,1.6-2.6c0.6-0.9,1.4-1.7,2.3-2.7
									c-2.2,2.6-2.1,1.2-0.6-1.3c0.4-0.6,0.9-1.3,1.5-2c0.6-0.7,1.3-1.3,2-2c0.7-0.7,1.6-1.2,2.4-1.7c0.4-0.2,0.8-0.5,1.2-0.7
									c0.4-0.2,0.8-0.3,1.2-0.4c0.6-0.2,1.2-0.3,1.7-0.5c0.6-0.2,1.2-0.3,1.8-0.6c0.6-0.2,1.2-0.4,1.7-0.6
									c0.6-0.2,1.2-0.4,1.8-0.6c1.2-0.5,2.5-0.8,3.7-1.2c0.6-0.2,1.3-0.3,1.9-0.5c0.7-0.2,1.3-0.4,2-0.5c1.3-0.2,2.7-0.6,4.1-0.6
									c0.7,0,1.4-0.2,2.1-0.2l2.1,0c0.4,0,0.7,0,1.1,0l1,0.1c0.7,0.1,1.4,0.2,2.1,0.3c0.7,0.2,1.3,0.4,2,0.6l1,0.3
									c0.3,0.1,0.6,0.3,0.9,0.4c0.6,0.3,1.2,0.5,1.9,0.8c0.6,0.3,1.2,0.6,1.9,0.9c0.3,0.2,0.7,0.3,1,0.5c0.3,0.2,0.6,0.4,1,0.6
									c0.6,0.4,1.3,0.8,2,1.2c6.4,5.2,11,11.9,12.8,19.7c1.8,7.7,0.9,16.5-3.9,23.7c-2.4,3.8-4.7,7.4-7.8,10.1
									c-0.5,0.5-1.2,0.8-1.9,1.2c-0.7,0.3-1.3,0.8-2,1c-1.4,0.5-2.6,1.1-3.7,1.4c-1.7,0.7-3.4,1.1-5,1.7c-1.6,0.4-3.2,0.9-4.7,1.1
									c1.8-0.1,3.2-0.6,4.7-0.9c0.7-0.2,1.5-0.5,2.3-0.7c0.4-0.1,0.8-0.2,1.2-0.4c0.4-0.2,0.8-0.3,1.3-0.5c1.2-0.5,0.9,0,0.1,0.6
									c-0.4,0.3-0.9,0.8-1.5,1.1c-0.6,0.3-1.1,0.6-1.5,0.8c-0.3,0.2-0.9,0.1-1.4,0c-0.5-0.1-1-0.3-1.4-0.1
									c-0.8,0.1-1.6,0.4-2.3,0.6c-0.8,0.2-1.6,0.4-2.5,0.6c-0.8,0.2-0.7-0.7-1.1-0.6c-1.2,0-2.3,0.4-3.3,0.6c-1,0.2-1.9,0.3-2.6,0
									c-1.2-0.3-2.2-0.8-3.1-1.1c-0.6-0.2-1.2-0.4-1.9-0.6c-0.4-0.1-0.9-0.2-1.3-0.2c0.2,0.4,0.2,0.8,0.2,1.2
									c-0.6-0.3-1.4-0.8-2-1.1c0.6,0.3,1.4,0.8,2,1.1c0-0.4,0-0.8-0.2-1.2c-3.2-0.6-6.9-1.9-9.9-3.9c0,0,0,0.1,0,0.1
									c1.7,1.2,3.4,2.4,5.1,4c-0.4-0.3-0.5-0.5-0.4-0.6c0.1-0.1,0.4,0,0.9,0.2c0.2,0.3,0.4,0.5,0.5,0.8c-0.5-0.2-0.9-0.3-1.4-0.5
									c-0.4-0.2-0.9-0.4-1.3-0.6c-0.8-0.5-1.6-1-2.1-1.8c0,0-0.8-0.3-1.2-0.5c-0.4-0.5-0.2-0.7-0.1-1c-0.3-0.2-0.7-0.5-1-0.7
									c0.2,0.5,0.8,1.2,1.3,1.9c0.3,0.3,0.5,0.6,0.7,0.9C29.3,181.7,29.4,181.9,29.4,181.9z"/>
								<path fill="#FDC231" d="M50.5,188.3c-0.3,0-0.7,0-1,0l1.1,0.1l1.1,0l2.1,0C52.9,187.9,51.7,188.1,50.5,188.3z"/>
							</g>
						</g>
					</g>
				</g>
			</g>
		</g>
	</g>
	<path fill="none" d="z"/>
	<g>
		<g>
			<g>
				<g>
					<g opacity="0.85">
						<g>
							<path fill="#202020" d="M72.7,54c-0.1-0.1-0.2-0.2-0.4-0.3c0,0.1,0.1,0.2,0.1,0.3C72.4,54.1,72.5,54,72.7,54z"/>
							<path fill="#202020" d="M72,53.4C71.9,53.4,71.9,53.4,72,53.4c-0.1-0.1-0.1-0.1-0.1-0.1C71.9,53.4,71.9,53.4,72,53.4z"/>
							<path fill="#202020" d="M71.2,53.1c0.1,0.1,0.2,0.2,0.3,0.2C71.5,53.2,71.4,53.1,71.2,53.1z"/>
							<path fill="#202020" d="M71.7,53.5c0-0.1,0-0.2,0.1-0.2c0,0,0,0,0,0c-0.1,0-0.2-0.1-0.2-0.1C71.6,53.4,71.7,53.4,71.7,53.5z"
								/>
							<path fill="#202020" d="M71.7,53.5c0,0.1,0,0.2,0,0.2C71.7,53.7,71.7,53.6,71.7,53.5z"/>
							<path fill="#202020" d="M70.5,54.8c-0.1,0,0.2-0.4,0-0.4c-0.4-0.1-0.8-0.1-1.1-0.3c-0.2,0-0.1-0.6-0.3-0.6
								c-0.4-0.1-1.6-0.2-1.1,0.2c0.7,0.4,1.3,0.7,1.9,1c0.6,0.2,1.2,0.4,1.9,0.6c0.2,0.1,0.3,0.2,0.4,0.3c-0.1-0.2-0.3-0.4-0.4-0.6
								C71.7,54.7,71,55,70.5,54.8z"/>
							<path fill="#202020" d="M75.3,56.2c-0.1,0-0.3,0-0.3,0c-0.1-0.5-0.5-0.6-0.9-0.7c0,0.1,0,0.2,0,0.3c0.2,0.1,0.3,0,0.2-0.2
								c0.2,0.5,0.5,0.8,0.9,1C75.2,56.5,75.3,56.4,75.3,56.2z"/>
							<path fill="#202020" d="M75.4,56.7c-0.1,0-0.2-0.1-0.2-0.1c0,0,0,0,0,0C75.3,56.7,75.3,56.7,75.4,56.7
								C75.4,56.7,75.4,56.7,75.4,56.7z"/>
							<path fill="#202020" d="M69.6,52.4c-0.9-0.6-1.7-1.2-2.5-1.8c-0.1,0-0.2,0.1-0.3,0c0-0.1,0-0.2-0.1-0.3
								c-0.1-0.1-0.2-0.2-0.3-0.3c0,0-0.1,0-0.1-0.1c0,0,0,0,0,0c-0.1,0-0.1,0.1-0.1,0.2c0,0.1,0,0.2,0,0.2c0,0,0-0.1,0-0.2
								c0-0.1-0.1-0.2-0.1-0.2c-0.1-0.1-0.2-0.1-0.3-0.2c0.2,0,0.3,0.1,0.3,0.2c0.1,0,0.2,0.1,0.2,0.1c0,0,0.1,0,0.1,0
								c-0.3-0.2-0.5-0.4-0.8-0.6c-0.1,0-0.1-0.1-0.2-0.1c-0.2-0.1-0.5-0.2-0.4-0.4c0,0-0.1-0.1-0.1-0.1c0,0,0,0,0,0.1
								c0,0,0-0.1,0-0.1c-0.2-0.2-0.4-0.3-0.6-0.5c-0.2,0-0.4,0-0.6-0.1c0,0,0-0.2,0-0.3c-0.1,0.1-0.2,0.1-0.4,0
								c0,0.2,0,0.4,0.1,0.5c0,0.3,0.6-0.2,0.5,0.3c0.1-0.5-0.5,0-0.5-0.3c0-0.1,0-0.3-0.1-0.5c-0.2-0.1-0.4-0.3-0.5-0.6
								c0.4,0,0.5,0.3,0.5,0.6c0.1,0,0.2,0,0.4,0c0,0.1,0,0.3,0,0.3c0.2,0,0.4,0,0.6,0.1c-0.4-0.3-0.7-0.6-1.1-1
								c-2.4-2.1-4.9-3.8-7.5-6c-1.4-1.2-2.7-2.4-3.9-3.6c-2.4-2.5-5.4-3.8-7.5-6.8c-0.8-1.1-3-2.4-4-3.1c-1.9-0.4-2.3,1.8-2.3,2
								c-0.2,2,1.1,1.7,2.2,3.8c-0.8-1.3,1.5-0.3,2,1.5c0.6,2.7,3.7,3.1,5.4,4.9c0.4,0.5,1,0.8,1.6,1.2c2.7,2.7,6.1,4.2,9.2,6.6
								c0.9,0.6,1.9,0.8,2.8,1.1c0.6,0.3,1,0.9,1.4,1.2c0.7,0.5,1.4,0.8,2,1c-0.7-0.4-1.2-0.6-1.9-1c-0.5-0.3,0.7-0.3,1.1-0.2
								c0.2,0,0.1,0.6,0.3,0.6c0.3,0.2,0.7,0.2,1.1,0.3c0.2,0-0.1,0.4,0,0.4c0.5,0.2,1.2-0.1,1.4,0.2c0.2,0.2,0.3,0.4,0.4,0.6
								c0.1,0.1,0.2,0.2,0.3,0.3c0.1,0,0.2,0,0.3,0.1c0-0.2,0.1-0.3,0.2-0.5c0.1,0.1,0.2,0.3,0.3,0.4c-0.1-0.1-0.2-0.3-0.3-0.4
								c-0.1,0.2-0.2,0.3-0.2,0.5c0.7,0.2,1.5,0.4,2.2,0.7c0,0,0,0,0,0c-0.4-0.2-0.7-0.5-0.9-1c0.1,0.2,0,0.3-0.2,0.2
								c0-0.1,0-0.2,0-0.3c0.4,0.1,0.8,0.2,0.9,0.7c0,0,0.2,0,0.3,0c0.1,0.1,0,0.2-0.1,0.4c0.1,0,0.1,0.1,0.2,0.1
								C69.9,53,69.6,52.4,69.6,52.4z"/>
							<path fill="#202020" d="M66,49.8c0.1,0,0.1,0.1,0.2,0.1c-0.2-0.2-0.4-0.4-0.6-0.5C65.6,49.7,65.8,49.8,66,49.8z"/>
						</g>
					</g>
				</g>
			</g>
		</g>
	</g>
	<g>
		<g>
			<g>
				<g>
					<g opacity="0.85">
						<g>
							<path fill="#202020" d="M33.7,76c0.1-0.1,0.3-0.2,0.4-0.3c-0.1,0-0.2,0-0.3,0C33.6,75.7,33.7,75.8,33.7,76z"/>
							<path fill="#202020" d="M34.4,75.5C34.4,75.5,34.5,75.5,34.4,75.5c0.1-0.1,0.1-0.1,0.1-0.1C34.5,75.4,34.5,75.4,34.4,75.5z"
								/>
							<path fill="#202020" d="M35,74.9c-0.1,0.1-0.2,0.2-0.3,0.3C34.8,75.1,34.9,75.1,35,74.9z"/>
							<path fill="#202020" d="M34.4,75.2c0.1,0,0.1,0.1,0.1,0.2c0,0,0,0,0,0c0.1-0.1,0.1-0.1,0.2-0.2
								C34.6,75.2,34.5,75.2,34.4,75.2z"/>
							<path fill="#202020" d="M34.4,75.2c-0.1,0-0.2,0-0.2-0.1C34.3,75.2,34.3,75.2,34.4,75.2z"/>
							<path fill="#202020" d="M33.6,73.7c0-0.1,0.3,0.3,0.4,0.1c0.2-0.3,0.4-0.7,0.7-0.9c0.1-0.2,0.6,0.1,0.7-0.1
								c0.2-0.3,0.6-1.4,0.2-1.1c-0.7,0.6-1,1-1.6,1.5c-0.4,0.5-0.8,1.1-1.2,1.6c-0.1,0.1-0.3,0.2-0.4,0.3c0.2-0.1,0.4-0.1,0.7-0.2
								C33.3,74.8,33.2,74.1,33.6,73.7z"/>
							<path fill="#202020" d="M30.7,77.7c0-0.1,0.1-0.3,0.1-0.3c0.5,0.1,0.7-0.3,1-0.6c-0.1,0-0.2-0.1-0.3-0.1
								c-0.2,0.1-0.1,0.3,0.1,0.2c-0.5,0-0.9,0.2-1.2,0.5C30.5,77.6,30.6,77.8,30.7,77.7z"/>
							<path fill="#202020" d="M30.2,77.7c0.1-0.1,0.1-0.1,0.2-0.2c0,0,0,0,0,0C30.3,77.6,30.3,77.6,30.2,77.7
								C30.2,77.7,30.2,77.7,30.2,77.7z"/>
							<path fill="#202020" d="M36.1,73.6c0.9-0.6,1.7-1.2,2.5-1.8c0-0.1,0-0.2,0.1-0.3c0.1,0,0.2,0,0.3,0c0.1-0.1,0.2-0.2,0.4-0.2
								c0,0,0.1-0.1,0.1-0.1c0,0,0,0,0,0c0-0.1,0-0.1-0.1-0.2c-0.1,0-0.2,0-0.2-0.1c0,0,0.1,0,0.2,0.1c0.1,0,0.2,0,0.3,0
								c0.1-0.1,0.2-0.2,0.3-0.3c-0.1,0.1-0.2,0.2-0.3,0.3c-0.1,0.1-0.1,0.1-0.2,0.2c0,0,0,0,0,0.1c0.3-0.2,0.6-0.3,0.8-0.5
								c0.1-0.1,0.1-0.1,0.1-0.2c0.2-0.2,0.3-0.4,0.6-0.3c0,0,0.1-0.1,0.2-0.1c0,0,0,0-0.1,0c0,0,0.1,0,0.1,0
								c0.2-0.1,0.4-0.3,0.6-0.4c0.1-0.2,0.1-0.4,0.2-0.5c0,0,0.2,0.1,0.3,0.1c0-0.1,0-0.3,0.1-0.4c-0.2,0-0.4-0.1-0.5-0.1
								c-0.3-0.1,0,0.6-0.4,0.4c0.4,0.3,0.2-0.5,0.4-0.4c0.2,0,0.3,0.1,0.5,0.1c0.1-0.2,0.4-0.3,0.8-0.3c-0.1,0.3-0.5,0.3-0.8,0.3
								c-0.1,0.1-0.1,0.2-0.1,0.4c-0.1,0-0.3-0.1-0.3-0.1c-0.1,0.2-0.2,0.3-0.2,0.5c0.4-0.3,0.8-0.5,1.3-0.8
								c2.8-1.6,5.2-3.4,8.1-5.2c1.6-1,3.1-1.8,4.7-2.6c3.1-1.5,5.3-3.9,8.8-4.9c1.3-0.4,3.2-2.1,4.2-2.8c0.9-1.6-1-2.8-1.1-2.8
								c-1.9-0.8-2,0.5-4.3,0.9c1.5-0.4-0.2,1.5-2,1.4c-2.7-0.3-4.1,2.5-6.4,3.6c-0.6,0.3-1.1,0.7-1.7,1.1c-3.5,1.7-5.9,4.4-9.2,6.7
								c-0.9,0.6-1.4,1.5-1.9,2.3c-0.5,0.4-1.2,0.7-1.6,1c-0.7,0.5-1.2,1-1.6,1.6c0.6-0.5,1-1,1.6-1.5c0.4-0.4,0,0.7-0.2,1.1
								c-0.1,0.2-0.6-0.1-0.7,0.1c-0.3,0.2-0.4,0.6-0.7,0.9c-0.1,0.2-0.3-0.2-0.4-0.1c-0.4,0.4-0.3,1.1-0.7,1.2
								c-0.2,0.1-0.5,0.2-0.7,0.2c-0.1,0.1-0.3,0.1-0.4,0.2c-0.1,0.1-0.1,0.2-0.2,0.3c0.1,0.1,0.3,0.2,0.4,0.3
								c-0.1,0.1-0.3,0.1-0.5,0.1c0.1-0.1,0.3-0.1,0.5-0.1c-0.1-0.1-0.3-0.3-0.4-0.3c-0.4,0.6-0.9,1.3-1.3,1.9c0,0,0,0,0,0
								c0.3-0.3,0.7-0.5,1.2-0.5c-0.2,0-0.3-0.1-0.1-0.2c0.1,0,0.2,0.1,0.3,0.1c-0.2,0.3-0.5,0.7-1,0.6c0,0-0.1,0.2-0.1,0.3
								c-0.1,0-0.2-0.1-0.3-0.2c-0.1,0.1-0.1,0.1-0.2,0.2C35.5,73.6,36.1,73.6,36.1,73.6z"/>
							<path fill="#202020" d="M39.7,71c0,0-0.1,0.1-0.1,0.2c0.2-0.1,0.5-0.3,0.7-0.4C40,70.6,39.9,70.8,39.7,71z"/>
						</g>
					</g>
				</g>
			</g>
		</g>
	</g>
	<g>
		<line fill="#FDB913" x1="37.9" y1="131.6" x2="75.6" y2="158.8"/>
		<g>
			<g>
				<g>
					<g opacity="0.85">
						<g>
							<path fill="#FCC134" d="M72.9,156c-0.1-0.1-0.2-0.2-0.4-0.3c0,0.1,0.1,0.2,0.1,0.3C72.7,156.1,72.8,156,72.9,156z"/>
							<path fill="#FCC134" d="M72.2,155.4C72.2,155.4,72.2,155.4,72.2,155.4c-0.1-0.1-0.1-0.1-0.1-0.1
								C72.1,155.4,72.2,155.4,72.2,155.4z"/>
							<path fill="#FCC134" d="M71.5,155.1c0.1,0.1,0.2,0.2,0.3,0.2C71.8,155.2,71.6,155.1,71.5,155.1z"/>
							<path fill="#FCC134" d="M71.9,155.5c0-0.1,0-0.2,0.1-0.2c0,0,0,0,0,0c-0.1,0-0.2-0.1-0.2-0.1
								C71.9,155.4,71.9,155.4,71.9,155.5z"/>
							<path fill="#FCC134" d="M71.9,155.5c0,0.1,0,0.2,0,0.2C72,155.7,72,155.6,71.9,155.5z"/>
							<path fill="#FCC134" d="M70.8,156.8c-0.1,0,0.2-0.4,0-0.4c-0.4-0.1-0.8-0.1-1.1-0.3c-0.2,0-0.1-0.6-0.3-0.6
								c-0.4-0.1-1.6-0.2-1.1,0.2c0.7,0.4,1.3,0.7,1.9,1c0.6,0.2,1.2,0.4,1.9,0.6c0.2,0.1,0.3,0.2,0.4,0.3c-0.1-0.2-0.3-0.4-0.4-0.6
								C71.9,156.7,71.3,157,70.8,156.8z"/>
							<path fill="#FCC134" d="M75.5,158.2c-0.1,0-0.3,0-0.3,0c-0.1-0.5-0.5-0.6-0.9-0.7c0,0.1,0,0.2,0,0.3c0.2,0.1,0.3,0,0.2-0.2
								c0.2,0.5,0.5,0.8,0.9,1C75.5,158.5,75.6,158.4,75.5,158.2z"/>
							<path fill="#FCC134" d="M75.7,158.7c-0.1,0-0.2-0.1-0.2-0.1c0,0,0,0,0,0C75.5,158.7,75.6,158.7,75.7,158.7
								C75.7,158.7,75.7,158.7,75.7,158.7z"/>
							<path fill="#FCC134" d="M69.8,154.4c-0.9-0.6-1.7-1.2-2.5-1.8c-0.1,0-0.2,0.1-0.3,0c0-0.1,0-0.2-0.1-0.3
								c-0.1-0.1-0.2-0.2-0.3-0.3c0,0-0.1,0-0.1-0.1c0,0,0,0,0,0c-0.1,0-0.1,0.1-0.1,0.2c0,0.1,0,0.2,0,0.2c0,0,0-0.1,0-0.2
								c0-0.1-0.1-0.2-0.1-0.2c-0.1-0.1-0.2-0.1-0.3-0.2c0.2,0,0.3,0.1,0.3,0.2c0.1,0,0.2,0.1,0.2,0.1c0,0,0.1,0,0.1,0
								c-0.3-0.2-0.5-0.4-0.8-0.6c-0.1,0-0.1-0.1-0.2-0.1c-0.2-0.1-0.5-0.2-0.4-0.4c0,0-0.1-0.1-0.1-0.1c0,0,0,0,0,0.1
								c0,0,0-0.1,0-0.1c-0.2-0.2-0.4-0.3-0.6-0.5c-0.2,0-0.4,0-0.6-0.1c0,0,0-0.2,0-0.3c-0.1,0.1-0.2,0.1-0.4,0
								c0,0.2,0,0.4,0.1,0.5c0,0.3,0.6-0.2,0.5,0.3c0.1-0.5-0.5,0-0.5-0.3c0-0.1,0-0.3-0.1-0.5c-0.2-0.1-0.4-0.3-0.5-0.6
								c0.4,0,0.5,0.3,0.5,0.6c0.1,0,0.2,0,0.4,0c0,0.1,0,0.3,0,0.3c0.2,0,0.4,0,0.6,0.1c-0.4-0.3-0.7-0.6-1.1-1
								c-2.4-2.1-4.9-3.8-7.5-6c-1.4-1.2-2.7-2.4-3.9-3.6c-2.4-2.5-5.4-3.8-7.5-6.8c-0.8-1.1-3-2.4-4-3.1c-1.9-0.4-2.3,1.8-2.3,2
								c-0.2,2,1.1,1.7,2.2,3.8c-0.8-1.3,1.5-0.3,2,1.5c0.6,2.7,3.7,3.1,5.4,4.9c0.4,0.5,1,0.8,1.6,1.2c2.7,2.7,6.1,4.2,9.2,6.6
								c0.9,0.6,1.9,0.8,2.8,1.1c0.6,0.3,1,0.9,1.4,1.2c0.7,0.5,1.4,0.8,2,1c-0.7-0.4-1.2-0.6-1.9-1c-0.5-0.3,0.7-0.3,1.1-0.2
								c0.2,0,0.1,0.6,0.3,0.6c0.3,0.2,0.7,0.2,1.1,0.3c0.2,0-0.1,0.4,0,0.4c0.5,0.2,1.2-0.1,1.4,0.2c0.2,0.2,0.3,0.4,0.4,0.6
								c0.1,0.1,0.2,0.2,0.3,0.3c0.1,0,0.2,0,0.3,0.1c0-0.2,0.1-0.3,0.2-0.5c0.1,0.1,0.2,0.3,0.3,0.4c-0.1-0.1-0.2-0.3-0.3-0.4
								c-0.1,0.2-0.2,0.3-0.2,0.5c0.7,0.2,1.5,0.4,2.2,0.7c0,0,0,0,0,0c-0.4-0.2-0.7-0.5-0.9-1c0.1,0.2,0,0.3-0.2,0.2
								c0-0.1,0-0.2,0-0.3c0.4,0.1,0.8,0.2,0.9,0.7c0,0,0.2,0,0.3,0c0.1,0.1,0,0.2-0.1,0.4c0.1,0,0.1,0.1,0.2,0.1
								C70.1,155,69.8,154.4,69.8,154.4z"/>
							<path fill="#FCC134" d="M66.3,151.8c0.1,0,0.1,0.1,0.2,0.1c-0.2-0.2-0.4-0.4-0.6-0.5C65.8,151.7,66,151.8,66.3,151.8z"/>
						</g>
					</g>
				</g>
			</g>
		</g>
	</g>
	<g>
		<line fill="#FDB913" x1="68.2" y1="152.5" x2="30.4" y2="179.7"/>
		<g>
			<g>
				<g>
					<g opacity="0.85">
						<g>
							<path fill="#FCC134" d="M33.9,178c0.1-0.1,0.3-0.2,0.4-0.3c-0.1,0-0.2,0-0.3,0C33.9,177.7,33.9,177.8,33.9,178z"/>
							<path fill="#FCC134" d="M34.7,177.5C34.7,177.5,34.7,177.5,34.7,177.5c0.1-0.1,0.1-0.1,0.1-0.1
								C34.7,177.4,34.7,177.4,34.7,177.5z"/>
							<path fill="#FCC134" d="M35.3,176.9c-0.1,0.1-0.2,0.2-0.3,0.3C35,177.1,35.2,177.1,35.3,176.9z"/>
							<path fill="#FCC134" d="M34.7,177.2c0.1,0,0.1,0.1,0.1,0.2c0,0,0,0,0,0c0.1-0.1,0.1-0.1,0.2-0.2
								C34.8,177.2,34.8,177.2,34.7,177.2z"/>
							<path fill="#FCC134" d="M34.7,177.2c-0.1,0-0.2,0-0.2-0.1C34.5,177.2,34.6,177.2,34.7,177.2z"/>
							<path fill="#FCC134" d="M33.8,175.7c0-0.1,0.3,0.3,0.4,0.1c0.2-0.3,0.4-0.7,0.7-0.9c0.1-0.2,0.6,0.1,0.7-0.1
								c0.2-0.3,0.6-1.4,0.2-1.1c-0.7,0.6-1,1-1.6,1.5c-0.4,0.5-0.8,1.1-1.2,1.6c-0.1,0.1-0.3,0.2-0.4,0.3c0.2-0.1,0.4-0.1,0.7-0.2
								C33.5,176.8,33.5,176.1,33.8,175.7z"/>
							<path fill="#FCC134" d="M31,179.7c0-0.1,0.1-0.3,0.1-0.3c0.5,0.1,0.7-0.3,1-0.6c-0.1,0-0.2-0.1-0.3-0.1
								c-0.2,0.1-0.1,0.3,0.1,0.2c-0.5,0-0.9,0.2-1.2,0.5C30.7,179.6,30.8,179.8,31,179.7z"/>
							<path fill="#FCC134" d="M30.5,179.7c0.1-0.1,0.1-0.1,0.2-0.2c0,0,0,0,0,0C30.6,179.6,30.5,179.6,30.5,179.7
								C30.5,179.7,30.5,179.7,30.5,179.7z"/>
							<path fill="#FCC134" d="M36.4,175.6c0.9-0.6,1.7-1.2,2.5-1.8c0-0.1,0-0.2,0.1-0.3c0.1,0,0.2,0,0.3,0c0.1-0.1,0.2-0.2,0.4-0.2
								c0,0,0.1-0.1,0.1-0.1c0,0,0,0,0,0c0-0.1,0-0.1-0.1-0.2c-0.1,0-0.2,0-0.2-0.1c0,0,0.1,0,0.2,0.1c0.1,0,0.2,0,0.3,0
								c0.1-0.1,0.2-0.2,0.3-0.3c-0.1,0.1-0.2,0.2-0.3,0.3c-0.1,0.1-0.1,0.1-0.2,0.2c0,0,0,0,0,0.1c0.3-0.2,0.6-0.3,0.8-0.5
								c0.1-0.1,0.1-0.1,0.1-0.2c0.2-0.2,0.3-0.4,0.6-0.3c0,0,0.1-0.1,0.2-0.1c0,0,0,0-0.1,0c0,0,0.1,0,0.1,0
								c0.2-0.1,0.4-0.3,0.6-0.4c0.1-0.2,0.1-0.4,0.2-0.5c0,0,0.2,0.1,0.3,0.1c0-0.1,0-0.3,0.1-0.4c-0.2,0-0.4-0.1-0.5-0.1
								c-0.3-0.1,0,0.6-0.4,0.4c0.4,0.3,0.2-0.5,0.4-0.4c0.2,0,0.3,0.1,0.5,0.1c0.1-0.2,0.4-0.3,0.8-0.3c-0.1,0.3-0.5,0.3-0.8,0.3
								c-0.1,0.1-0.1,0.2-0.1,0.4c-0.1,0-0.3-0.1-0.3-0.1c-0.1,0.2-0.2,0.3-0.2,0.5c0.4-0.3,0.8-0.5,1.3-0.8
								c2.8-1.6,5.2-3.4,8.1-5.2c1.6-1,3.1-1.8,4.7-2.6c3.1-1.5,5.3-3.9,8.8-4.9c1.3-0.4,3.2-2.1,4.2-2.8c0.9-1.6-1-2.8-1.1-2.8
								c-1.9-0.8-2,0.5-4.3,0.9c1.5-0.4-0.2,1.5-2,1.4c-2.7-0.3-4.1,2.5-6.4,3.6c-0.6,0.3-1.1,0.7-1.7,1.1c-3.5,1.7-5.9,4.4-9.2,6.7
								c-0.9,0.6-1.4,1.5-1.9,2.3c-0.5,0.4-1.2,0.7-1.6,1c-0.7,0.5-1.2,1-1.6,1.6c0.6-0.5,1-1,1.6-1.5c0.4-0.4,0,0.7-0.2,1.1
								c-0.1,0.2-0.6-0.1-0.7,0.1c-0.3,0.2-0.4,0.6-0.7,0.9c-0.1,0.2-0.3-0.2-0.4-0.1c-0.4,0.4-0.3,1.1-0.7,1.2
								c-0.2,0.1-0.5,0.2-0.7,0.2c-0.1,0.1-0.3,0.1-0.4,0.2c-0.1,0.1-0.1,0.2-0.2,0.3c0.1,0.1,0.3,0.2,0.4,0.3
								c-0.1,0.1-0.3,0.1-0.5,0.1c0.1-0.1,0.3-0.1,0.5-0.1c-0.1-0.1-0.3-0.3-0.4-0.3c-0.4,0.6-0.9,1.3-1.3,1.9c0,0,0,0,0,0
								c0.3-0.3,0.7-0.5,1.2-0.5c-0.2,0-0.3-0.1-0.1-0.2c0.1,0,0.2,0.1,0.3,0.1c-0.2,0.3-0.5,0.7-1,0.6c0,0-0.1,0.2-0.1,0.3
								c-0.1,0-0.2-0.1-0.3-0.2c-0.1,0.1-0.1,0.1-0.2,0.2C35.8,175.6,36.4,175.6,36.4,175.6z"/>
							<path fill="#FCC134" d="M40,173c0,0-0.1,0.1-0.1,0.2c0.2-0.1,0.5-0.3,0.7-0.4C40.3,172.6,40.1,172.8,40,173z"/>
						</g>
					</g>
				</g>
			</g>
		</g>
	</g>
</g>
</svg>
